<?xml version="1.0" encoding="utf-8"?>
<!-- Generator: Adobe Illustrator 24.3.0, SVG Export Plug-In . SVG Version: 6.00 Build 0)  -->
<svg version="1.1" xmlns="http://www.w3.org/2000/svg" xmlns:xlink="http://www.w3.org/1999/xlink" x="0px" y="0px"
	 viewBox="0 0 149.2 172.2" style="enable-background:new 0 0 149.2 172.2;" xml:space="preserve">
<style type="text/css">
	.st0{display:none;}
	.st1{fill:#585858;}
	.st2{display:inline;fill:#585858;}
	.st3{display:inline;fill:#FFFFFF;}
</style>
<g id="Layer_1" class="st0">
	<polygon class="st1" points="149.2,129.2 74.6,172.2 0,129.2 0,43.1 74.6,0 149.2,43.1 	"/>
	<path class="st2" d="M149.2,43.1v86.1l-74.6,43.1L0,129.2v-10c10.4,6.6,22.8,10.4,36,10.4c37.1,0,67.2-30.1,67.2-67.2
		c0-25.3-14-47.4-34.7-58.9L74.6,0L149.2,43.1z"/>
	<circle class="st3" cx="104.8" cy="119.5" r="5.8"/>
</g>
<g id="Layer_2">
	<path d="M74.6,0l-6.1,3.5c20.7,11.5,34.7,33.6,34.7,58.9c0,37.1-30.1,67.2-67.2,67.2c-13.2,0-25.6-3.8-36-10.4v10l74.6,43.1
		l74.6-43.1V43.1L74.6,0z M104.8,125.3c-3.2,0-5.8-2.6-5.8-5.8s2.6-5.8,5.8-5.8s5.8,2.6,5.8,5.8S108,125.3,104.8,125.3z"/>
</g>
</svg>
